<svg xmlns="http://www.w3.org/2000/svg" xmlns:xlink="http://www.w3.org/1999/xlink" viewBox="-282 374 46 46"><title>San Francisco Giants Cap Logo on Dark</title><defs><path id="a" d="M-246.2 394.1l-1.5-.2s-.9-.1-1.7-.9c-.8-.8-1.1-1.7-1.1-1.7l-.2-.7h-8.6v-1.1h9c1.2 0 1.5 1.7 1.6 1.8l.1.8h6.6l-1.1-1.6c-1-1.5-1.3-4.8-1.3-5.9v-1.3l-1.2.3h-.2l-.6-1.1c-.5-.9-.3-2-.3-2l.4-1.3-1.3.1c-.1 0-.6-.2-1.4-.8-.7-.6-.9-1.1-1-1.2l-.2-1.4-1.2.7c-.3.1-1.8.3-7.8.3s-7.5-.3-7.8-.3l-.8-.5-.5 1s-.5 1-1.4 1.8c-1.1 1-1.9 1.5-1.9 1.5l-.8.4.3.8s.4 1.2.4 4.9c0 3.4-.3 4.4-.3 4.6l-.7 1.2 1.5.2s.9.1 1.7.9c.8.8 1.2 1.7 1.2 1.7l.2.7h3.7v8.8h-.9l-1-1.1v-6H-273.4l1.5 1.7c.4.5.5 3.5.2 6.4v.6l.6.3s.8.5 1.9 1.5c.9.9 1.4 1.8 1.4 1.8l.4 1.1.9-.6c.2 0 .7-.1 2.3-.2v.8c0 1.3-1 1.3-1.3 1.3h-2.2l1.4 1.7s1 1.3 1.1 2.6v1h7.2v-1c.1-1.4 1.1-2.6 1.1-2.6l1.4-1.7h-2.2c-.4 0-1.3 0-1.3-1.3v-.9c5.4 0 7.1.3 7.4.3l.7.7.6-1.2s.5-1 1.4-1.8c1.1-1 1.9-1.5 1.9-1.5l.7-.4-.2-.7s-.4-1.7-.4-5.6c0-3.4.3-4.4.3-4.6l.4-1.1zm-13.2-2.5h6.6-6.6zm-5.3-1h-.9l-1-1.1v-.7h.6c.4 0 1.3 0 1.3 1.3v.5zm-1.9-3.7v-3.4l1-1.1h12.4l1.6 1.6h-3.6c-7.3 0-9.1-.5-9.2-.5l-1.2-.4-.1 1.3c0 1.2-.6 2.1-.9 2.5zm-1.1 8.1s-.4-1.2-1.4-2.2c-1.1-1-2.3-1.2-2.3-1.2s.4-.9.4-5-.4-5.2-.4-5.2.9-.5 2.1-1.6c1.1-1 1.6-2.1 1.6-2.1s.7.4 8.2.4c7.5 0 8.2-.4 8.2-.4s.2.8 1.3 1.7c1.2 1 2 1 2 1s-.3 1.5.4 2.7h-3.6l-1.6-1.7H-266l-1.6 1.7v6.9l1.6 1.7h1.4v3.3h-3.1zm4 1.4v-6.3c0-1.1-.6-2.3-2.3-2.3 0 0 1.3-1.5 1.3-3.2 0 0 1.7.5 9.5.5s9.6-.5 9.6-.5.1 4.4 1.5 6.5h-3.8s-.4-2.6-2.6-2.6h-10v10.4s4.9.2 6.5-.6c0 0-.2.9-.2 2.2s.2 2.4.2 2.4c-1.7-.8-6.5-.6-6.5-.6v2.5h-3.3v-8.4zm11.2 7.3l-.1.1-.3-1.2s-.2-1.1-.2-2.2.2-1.9.2-1.9l.4-1.3v6.5zm-1.8-6.4c-.7.3-2.5.5-4.8.5h-.3V396h5.8l.6.7-1.3.6zm1.2 7l-.4.4h-5.8v-1.5h.3c2.3 0 4.1.2 4.8.5l1.1.6zm-4.9 9.1s-1.3 1.5-1.3 3.2h-5.3c-.1-1.7-1.3-3.2-1.3-3.2 1.8 0 2.4-1.2 2.4-2.3v-.9c.9 0 2-.1 3.3-.1v.9c-.2 1.2.4 2.4 2.2 2.4zm10.2-7.6s-.9.5-2.1 1.6c-1.1 1-1.6 2.1-1.6 2.1s-.8-.4-8-.4c-6.9 0-7.9.4-7.9.4s-.6-1.1-1.6-2.1c-1.2-1.1-2.1-1.6-2.1-1.6s.5-6-.5-7.1h3.9v5.4l1.6 1.7h12.9l1.6-1.7v-7.5l-1.6-1.7h-6.3v-3.3h7.9s.4 1.2 1.4 2.2c1.1 1 2.3 1.2 2.3 1.2s-.4.9-.4 5c.1 4.1.5 5.8.5 5.8z"/></defs><clipPath id="b"><use xlink:href="#a" overflow="visible"/></clipPath><path clip-path="url(#b)" fill="#FADDB5" d="M-279.9 369.9h43.8v53.8h-43.8z"/><defs><path id="c" d="M-260.4 411.1v-.9c-1.3 0-2.4 0-3.3.1v.9c0 1.1-.6 2.3-2.4 2.3 0 0 1.3 1.5 1.3 3.2h5.3c.1-1.7 1.3-3.2 1.3-3.2-1.6-.1-2.2-1.3-2.2-2.4"/></defs><clipPath id="d"><use xlink:href="#c" overflow="visible"/></clipPath><path clip-path="url(#d)" fill="#1A1919" d="M-272.1 404h20.2v18.7h-20.2z"/><defs><path id="e" d="M-260.4 404.8v-2.5s4.9-.2 6.5.6c0 0-.2-1.1-.2-2.4s.2-2.2.2-2.2c-1.7.8-6.5.6-6.5.6v-10.4h10c2.1 0 2.6 2.6 2.6 2.6h3.8c-1.4-2.1-1.5-6.5-1.5-6.5s-1.9.5-9.6.5c-7.7 0-9.5-.5-9.5-.5-.1 1.7-1.3 3.2-1.3 3.2 1.8 0 2.3 1.2 2.3 2.3v14.6h3.2"/></defs><clipPath id="f"><use xlink:href="#e" overflow="visible"/></clipPath><path clip-path="url(#f)" fill="#1A1919" d="M-272.1 378.5h34.2v32.4h-34.2z"/><g><defs><path id="g" d="M-252.8 391.6h-6.6 6.6"/></defs><clipPath id="h"><use xlink:href="#g" overflow="visible"/></clipPath><path clip-path="url(#h)" fill="#1A1919" d="M-265.5 385.5h18.8v12.2h-18.8z"/></g><g><defs><path id="i" d="M-264.7 391.6h-1.4l-1.6-1.7V383l1.6-1.7h13.2l1.6 1.7h3.6c-.7-1.2-.4-2.7-.4-2.7s-.8 0-2-1c-1.1-.9-1.3-1.7-1.3-1.7s-.7.4-8.2.4c-7.5 0-8.2-.4-8.2-.4s-.6 1.1-1.6 2.1c-1.2 1.1-2.1 1.6-2.1 1.6s.4 1.1.4 5.2-.4 5-.4 5 1.2.1 2.3 1.2c1 1 1.4 2.2 1.4 2.2h3v-3.3"/></defs><clipPath id="j"><use xlink:href="#i" overflow="visible"/></clipPath><path clip-path="url(#j)" fill="#1A1919" d="M-277.5 371.6h36v29.5h-36z"/></g><g><defs><path id="k" d="M-250.1 393.8c-1-1-1.4-2.2-1.4-2.2h-7.9v3.3h6.3l1.6 1.7v7.5l-1.6 1.7H-266l-1.6-1.7v-5.4h-3.9c.9 1.1.5 7.1.5 7.1s.9.5 2.1 1.6c1.1 1 1.6 2.1 1.6 2.1s.9-.4 7.9-.4c7.2 0 8 .4 8 .4s.6-1.1 1.6-2.1c1.2-1.1 2.1-1.6 2.1-1.6s-.4-1.7-.4-5.8.4-5 .4-5-1.3-.2-2.4-1.2"/></defs><clipPath id="l"><use xlink:href="#k" overflow="visible"/></clipPath><path clip-path="url(#l)" fill="#1A1919" d="M-277.6 385.5h35.9v30.1h-35.9z"/></g><path d="M-252.4 416h.6v1.6h-.3v-1.3l-.5 1.3h-.3l-.5-1.3v1.3h-.3V416h.6l.3 1.1zM-255.3 416h1.3v.3h-.5v1.3h-.3v-1.3h-.5z"/></svg>
